<svg xmlns="http://www.w3.org/2000/svg" viewBox="0 0 1440 320">
  <path fill="#7ed957" fill-opacity="1" d="M0,288L24,293.3C48,299,96,309,144,288C192,267,240,213,288,181.3C336,149,384,139,432,149.3C480,160,528,192,576,208C624,224,672,224,720,186.7C768,149,816,75,864,80C912,85,960,171,1008,186.7C1056,203,1104,149,1152,144C1200,139,1248,181,1296,165.3C1344,149,1392,75,1416,37.3L1440,0L1440,320L1416,320C1392,320,1344,320,1296,320C1248,320,1200,320,1152,320C1104,320,1056,320,1008,320C960,320,912,320,864,320C816,320,768,320,720,320C672,320,624,320,576,320C528,320,480,320,432,320C384,320,336,320,288,320C240,320,192,320,144,320C96,320,48,320,24,320L0,320Z"></path>
</svg>