<svg width="100%" height="10%" id="svg" viewBox="0 0 1440 390" xmlns="http://www.w3.org/2000/svg" class="transition duration-300 ease-in-out delay-150"><path d="M 0,400 L 0,150 C 66.18722385861562,138.99134756995582 132.37444771723125,127.98269513991164 192,130 C 251.62555228276875,132.01730486008836 304.6894329896907,147.06056701030928 360,131 C 415.3105670103093,114.9394329896907 472.86782032400583,67.77503681885123 538,81 C 603.1321796759942,94.22496318114877 675.8392857142857,167.83928571428572 742,168 C 808.1607142857143,168.16071428571428 867.7750368188513,94.86782032400589 921,97 C 974.2249631811487,99.13217967599411 1021.0605670103091,176.68943298969074 1079,197 C 1136.9394329896909,217.31056701030926 1205.9826951399118,180.37444771723122 1268,163 C 1330.0173048600882,145.62555228276878 1385.008652430044,147.8127761413844 1440,150 L 1440,400 L 0,400 Z" stroke="none" stroke-width="0" fill="#e0f4ff" fill-opacity="1" class="transition-all duration-300 ease-in-out delay-150 path-0" transform="rotate(-180 720 200)"></path></svg>